<?xml version="1.0" encoding="utf-8"?>
<!-- Generator: Adobe Illustrator 16.0.4, SVG Export Plug-In . SVG Version: 6.00 Build 0)  -->
<!DOCTYPE svg PUBLIC "-//W3C//DTD SVG 1.1//EN" "http://www.w3.org/Graphics/SVG/1.1/DTD/svg11.dtd">
<svg version="1.1" id="Layer_1" xmlns="http://www.w3.org/2000/svg" xmlns:xlink="http://www.w3.org/1999/xlink" x="0px" y="0px"
	 width="612px" height="612px" viewBox="0 0 612 612" enable-background="new 0 0 612 612" xml:space="preserve">
<path d="M444.601,260.042c-0.948-2.34-3.522-3.792-6.713-3.792c-1.495,0-3.068,0.316-4.552,0.921c-2.2,0.891-4.05,2.333-5.21,4.059
	c-1.282,1.91-1.599,4.044-0.867,5.849c0.95,2.34,3.522,3.796,6.713,3.796c1.491,0,3.066-0.32,4.55-0.921
	C443.382,267.981,446.053,263.63,444.601,260.042z M441.217,265.966c-0.425,0.932-1.56,1.252-2.197,1.359
	c-1.338,0.226-2.965-0.039-4.465-0.723c-1.046-0.476-1.975-1.125-2.688-1.882c-1.18-1.243-1.64-2.608-1.208-3.562
	c0.658-1.439,3.558-2.053,6.666-0.636C440.095,261.782,441.917,264.431,441.217,265.966z"/>
<g>
	<path fill="#489ED7" d="M577.773,292.148c-2.033,2.638-4.404,5.478-7.115,8.529c-2.71,3.047-5.533,5.967-8.471,8.751
		c-3.84,3.614-7.662,6.362-11.463,8.244c-3.804,1.883-7.285,2.824-10.447,2.824c-3.238,0-5.761-1.017-7.567-3.05
		c-1.808-2.031-2.71-4.667-2.71-7.906c0-1.202,0.188-2.559,0.564-4.066c1.354-0.298,3.086-0.676,5.195-1.128
		c2.106-0.452,4.365-1.017,6.777-1.695c2.408-0.677,4.836-1.467,7.284-2.372c2.445-0.902,4.647-1.956,6.606-3.162
		c1.956-1.202,3.558-2.559,4.8-4.066c1.243-1.504,1.864-3.162,1.864-4.969c0-2.259-0.904-4.009-2.711-5.252
		c-1.808-1.243-4.331-1.864-7.566-1.864c-3.541,0-7.285,0.868-11.239,2.597c-3.952,1.733-7.586,3.991-10.898,6.778
		c-3.312,2.787-6.061,5.948-8.244,9.485c-0.808,1.309-1.464,2.624-1.973,3.943c-2.261,2.562-4.557,5.017-6.892,7.352
		c-7.002,7.003-12.048,10.503-15.134,10.503c-0.829,0-1.431-0.281-1.807-0.846c-0.377-0.565-0.564-1.261-0.564-2.09
		c0-2.033,0.827-4.292,2.485-6.777c1.654-2.483,3.5-5.042,5.532-7.68c2.033-2.632,3.877-5.287,5.535-7.961
		c1.654-2.671,2.483-5.289,2.483-7.849c0-1.958-0.733-3.689-2.202-5.195c-1.467-1.506-3.406-2.259-5.816-2.259
		c-2.483,0-4.988,0.735-7.511,2.202c-2.521,1.469-4.932,3.257-7.228,5.364c-2.298,2.11-4.423,4.349-6.381,6.721
		c-1.959,2.371-3.652,4.461-5.082,6.268l-0.227-0.224c0.604-0.904,1.261-1.939,1.977-3.106c0.715-1.167,1.356-2.334,1.921-3.502
		s1.033-2.351,1.411-3.557c0.375-1.204,0.564-2.334,0.564-3.39c0-2.257-0.733-3.952-2.202-5.081
		c-1.469-1.129-3.257-1.695-5.364-1.695c-3.013,0-5.856,0.791-8.527,2.371c-2.673,1.581-5.178,3.502-7.511,5.761
		c-2.334,2.257-4.5,4.63-6.494,7.114c-1.994,2.485-3.783,4.632-5.364,6.438l-0.226-0.225l15.021-20.555l-13.215,0.676
		c-2.104,3.682-4.232,7.319-6.38,10.924c-0.518,0.591-1.105,1.271-1.782,2.065c-1.094,1.281-2.336,2.709-3.728,4.29
		c-1.394,1.581-2.88,3.221-4.461,4.914c-1.581,1.695-3.2,3.408-4.856,5.138c-4.142,4.219-7.587,7.191-10.335,8.923
		c-2.748,1.733-4.875,2.6-6.38,2.6c-0.679,0-1.187-0.283-1.524-0.848c-0.34-0.564-0.509-1.3-0.509-2.204
		c0-1.129,0.395-2.577,1.186-4.346c0.79-1.769,1.994-4.048,3.613-6.834c1.62-2.783,3.708-6.155,6.269-10.107
		c2.559-3.954,5.608-8.715,9.149-14.289l-11.633,0.564c-2.273,3.537-4.287,6.682-6.051,9.455c-2.419,3.21-5.014,6.384-7.785,9.519
		c-2.862,3.239-5.496,6.062-7.906,8.47c-3.539,3.39-6.851,6.044-9.938,7.964c-3.088,1.919-5.573,2.878-7.454,2.878
		c-0.979,0-1.733-0.298-2.259-0.902c-0.527-0.601-0.791-1.392-0.791-2.373c0-1.129,0.32-2.445,0.96-3.952
		c0.64-1.504,1.656-3.519,3.05-6.04c1.392-2.522,3.255-5.686,5.59-9.489c2.333-3.801,5.194-8.489,8.584-14.061h14.568l1.017-2.033
		h-14.342l9.373-14.682l-12.196,0.452l-8.471,14.229h-8.696l-0.791,2.033h8.471c-1.637,2.839-3.192,5.432-4.671,7.794l-0.39-0.34
		c-2.259,3.162-4.8,6.4-7.623,9.713c-2.823,3.314-5.873,6.438-9.148,9.375c-3.274,2.936-6.683,5.515-10.221,7.735
		c-3.541,2.221-7.116,3.856-10.729,4.912c4.14-6.85,8.111-13.758,11.915-20.725c3.802-6.963,7.737-13.948,11.803-20.948
		l-11.069,0.45c-0.603,1.432-1.544,3.276-2.823,5.535c-1.279,2.257-2.748,4.743-4.404,7.452c-1.958,3.239-4.142,6.382-6.55,9.432
		c-2.412,3.05-4.8,5.743-7.173,8.075c-2.371,2.335-4.612,4.198-6.719,5.59c-2.11,1.396-3.84,2.091-5.196,2.091
		c-0.829,0-1.524-0.283-2.089-0.848c-0.563-0.564-0.847-1.3-0.847-2.202c0-2.41,1.768-6.477,5.309-12.197
		c3.536-5.722,8.471-13.515,14.794-23.378l-11.971,0.45c-2.033,3.465-4.066,6.814-6.099,10.053
		c-1.273,2.028-2.457,3.982-3.568,5.876c-0.562,0.649-1.133,1.304-1.728,1.973c-2.71,3.047-5.533,5.967-8.471,8.751
		c-3.84,3.614-7.662,6.362-11.463,8.244c-3.803,1.883-7.285,2.824-10.447,2.824c-3.239,0-5.761-1.017-7.568-3.05
		c-1.807-2.031-2.709-4.667-2.709-7.906c0-1.202,0.188-2.559,0.564-4.066c1.355-0.298,3.086-0.676,5.195-1.128
		c2.106-0.452,4.366-1.017,6.777-1.695c2.408-0.677,4.836-1.467,7.285-2.372c2.445-0.902,4.647-1.956,6.606-3.162
		c1.956-1.202,3.557-2.559,4.799-4.066c1.243-1.504,1.864-3.162,1.864-4.969c0-2.259-0.905-4.009-2.711-5.252
		c-1.807-1.243-4.331-1.864-7.566-1.864c-3.54,0-7.285,0.868-11.239,2.597c-3.952,1.733-7.586,3.991-10.898,6.778
		c-2.715,2.284-5.03,4.834-6.987,7.623c-0.463,0.27-0.938,0.516-1.427,0.734c-1.017,0.452-2.052,0.678-3.106,0.678
		c-3.237,0-4.855-1.62-4.855-4.856c0-2.559,0.601-4.951,1.807-7.171c1.202-2.221,2.52-4.349,3.952-6.382
		c-2.108,0.077-3.86,0.151-5.252,0.226c-1.394,0.075-2.581,0.245-3.557,0.509c-0.979,0.265-1.827,0.64-2.542,1.128
		c-0.717,0.489-1.487,1.149-2.314,1.976c-0.527,0.528-1.356,1.149-2.485,1.864c-1.128,0.715-2.523,1.75-4.178,3.104
		c-1.658,1.356-3.595,3.106-5.816,5.253c-2.223,2.144-4.765,4.989-7.625,8.526l-0.224-0.226l14.908-21.005l-12.875,0.45
		c-2.286,3.955-4.579,7.858-6.875,11.735c-1.323,1.362-2.6,2.473-3.819,3.285c-1.807,1.206-3.728,1.809-5.761,1.809
		c-2.106,0-3.82-0.678-5.138-2.033c-1.318-1.356-2.166-3.162-2.542-5.422c-0.526-3.085-1.958-5.721-4.291-7.905
		c-2.334-2.184-5.533-3.275-9.599-3.275c-3.767,0-7.606,0.809-11.522,2.428s-7.493,3.803-10.728,6.549
		c-3.239,2.75-5.873,5.949-7.906,9.601c-0.375,0.674-0.704,1.357-1.01,2.042c-0.211,0.241-0.415,0.483-0.628,0.724
		c-2.862,3.239-5.496,6.062-7.905,8.47c-3.54,3.39-6.852,6.044-9.938,7.964c-3.088,1.919-5.574,2.878-7.455,2.878
		c-0.979,0-1.732-0.298-2.258-0.902c-0.527-0.601-0.791-1.392-0.791-2.373c0-1.129,0.319-2.445,0.96-3.952
		c0.639-1.504,1.655-3.519,3.049-6.04c1.393-2.522,3.255-5.686,5.59-9.489c2.334-3.801,5.196-8.489,8.584-14.061h14.568l1.019-2.033
		h-14.345l9.374-14.682l-12.197,0.452l-8.471,14.229h-8.492c-0.102-2.868-0.668-5.678-1.758-8.366
		c-0.915-2.253-2.148-4.316-3.657-6.18c-0.108,1.183-0.408,2.216-0.909,3.087c-0.641,1.108-1.482,1.988-2.529,2.627
		c-1.047,0.64-2.258,1.111-3.64,1.416c-1.382,0.304-2.815,0.458-4.296,0.458c0.943-1.551,1.668-3.067,2.173-4.553
		c0.504-1.483,0.659-3.171,0.757-5.057c0.323-6.143-4.075-7.375-5.218-7.776c-1.6-0.561-5.048-1.485-8.785,1.306
		c-1.72,1.284-3.154,3.019-4.298,5.205c-1.147,2.192-2.021,4.752-2.63,7.688c-0.605,2.933-1.111,6.034-1.517,9.301
		c-0.404,3.273-0.742,6.625-1.01,10.065c-0.271,3.434-0.606,6.81-1.013,10.108c-0.338,2.9-1.113,6.037-2.325,9.406
		c-1.214,3.372-3.068,6.522-5.56,9.453c-2.496,2.934-5.75,5.38-9.76,7.335c-4.011,1.952-8.983,2.929-14.917,2.929
		c-0.25,0-0.495-0.018-0.746-0.023c10.497,1.582,22.817,0.136,34.958-4.789c21.648-8.78,36.035-25.867,36.679-41.606h7.476
		c-2.258,3.917-4.368,7.38-6.325,10.392c-1.958,3.011-3.671,5.759-5.139,8.243c-1.469,2.485-2.616,4.764-3.445,6.834
		c-0.828,2.071-1.243,4.084-1.243,6.042c0,2.711,0.904,4.612,2.71,5.704c1.807,1.09,3.915,1.636,6.325,1.636
		c1.731,0,3.501-0.338,5.308-1.015c1.807-0.678,3.651-1.6,5.534-2.769c1.882-1.165,3.745-2.521,5.591-4.065
		c1.844-1.541,3.631-3.181,5.365-4.912c2.18-2.181,4.226-4.38,6.156-6.596c-0.671,2.181-1.018,4.415-1.018,6.708
		c0,4.142,1.243,7.398,3.728,9.77c2.485,2.372,5.797,3.558,9.937,3.558c3.916,0,7.68-0.733,11.294-2.202
		c3.614-1.469,6.889-3.462,9.827-5.987c2.936-2.521,5.438-5.456,7.511-8.809c2.07-3.35,3.557-6.906,4.459-10.673
		c1.055,1.356,2.221,2.412,3.502,3.162c1.279,0.754,2.785,1.131,4.516,1.131c2.485,0,4.761-0.791,6.834-2.374
		c0.21-0.161,0.405-0.332,0.61-0.497c-0.931,1.558-1.858,3.131-2.792,4.677c-3.954,6.551-7.849,13.139-11.689,19.764l11.408-0.338
		c1.654-3.088,3.518-6.269,5.588-9.544s4.331-6.456,6.778-9.544c2.446-3.084,5.101-6.022,7.961-8.809
		c2.862-2.785,5.873-5.232,9.037-7.342l0.226,0.228c-1.13,1.732-1.695,3.576-1.695,5.533c0,3.088,0.864,5.421,2.598,7.002
		c1.731,1.583,4.103,2.373,7.116,2.373c3.142,0,6.053-0.723,8.743-2.147c-2.137,3.503-3.208,7.042-3.208,10.618
		c0,4.064,1.241,7.378,3.726,9.938c2.485,2.559,5.873,3.84,10.166,3.84c4.215,0,8.713-0.887,13.496-2.654
		c4.779-1.767,9.768-4.987,14.965-9.656c2.874-2.64,5.43-5.186,7.688-7.644c-1.057,1.997-1.971,3.87-2.732,5.61
		c-1.054,2.412-1.581,4.557-1.581,6.438c0,1.959,0.546,3.654,1.638,5.082c1.092,1.429,2.879,2.146,5.364,2.146
		c2.408,0,4.781-0.603,7.115-1.805c2.333-1.206,4.556-2.654,6.664-4.35c2.106-1.694,4.009-3.463,5.702-5.309
		c1.694-1.844,3.106-3.445,4.235-4.8l0.226,0.227c-1.656,2.786-3.463,5.911-5.421,9.375c-1.958,3.463-4.048,7-6.269,10.615
		c-2.22,3.614-4.63,7.132-7.228,10.561c-2.598,3.425-5.364,6.475-8.302,9.147c-2.936,2.672-6.097,4.817-9.486,6.437
		c-3.388,1.618-7.002,2.429-10.842,2.429c-3.614,0-6.644-1.129-9.092-3.388c-2.445-2.26-3.671-5.384-3.671-9.375
		c0-3.388,0.886-6.25,2.654-8.583c1.77-2.334,4.274-3.501,7.511-3.501c0.98,0,1.656,0.036,2.033,0.113v-1.017
		c-0.601-0.152-1.373-0.265-2.316-0.34c-0.939-0.075-1.862-0.112-2.766-0.112c-2.107,0-4.16,0.245-6.155,0.733
		c-1.994,0.489-3.765,1.243-5.309,2.26c-1.542,1.017-2.785,2.314-3.728,3.896c-0.939,1.581-1.412,3.5-1.412,5.76
		c0,2.784,0.605,5.14,1.807,7.059c1.206,1.921,2.787,3.463,4.744,4.63c1.96,1.168,4.217,1.995,6.776,2.485
		c2.561,0.489,5.197,0.733,7.906,0.733c5.421,0,10.503-0.809,15.248-2.428c4.742-1.62,9.146-3.858,13.213-6.719
		c4.066-2.862,7.792-6.252,11.182-10.165c3.388-3.916,6.438-8.17,9.147-12.762c3.613-0.904,7.228-2.411,10.842-4.518
		c3.615-2.107,7.134-4.61,10.561-7.512c3.424-2.896,6.682-6.099,9.77-9.599c1.144-1.297,2.239-2.612,3.311-3.935
		c-0.764,1.231-1.484,2.416-2.148,3.538c-1.467,2.485-2.614,4.764-3.445,6.834c-0.827,2.071-1.24,4.084-1.24,6.042
		c0,2.711,0.902,4.612,2.709,5.704c1.808,1.09,3.914,1.636,6.325,1.636c1.732,0,3.5-0.338,5.31-1.015
		c1.807-0.678,3.65-1.6,5.532-2.769c1.881-1.165,3.745-2.521,5.591-4.065c1.845-1.541,3.632-3.181,5.365-4.912
		c3.162-3.162,6.059-6.362,8.696-9.599c0.451-0.555,0.871-1.075,1.296-1.601c-1.38,2.24-2.556,4.217-3.499,5.892
		c-1.355,2.411-2.314,4.423-2.879,6.042s-0.848,3.182-0.848,4.688c0,2.186,0.679,3.952,2.033,5.307
		c1.354,1.356,3.275,2.033,5.759,2.033c2.637,0,5.515-0.865,8.64-2.596c3.125-1.731,6.871-4.783,11.239-9.15
		c1.505-1.504,3.05-3.084,4.63-4.742c1.581-1.655,3.123-3.331,4.631-5.026c0.472-0.531,0.918-1.042,1.372-1.558
		c-0.432,0.704-0.854,1.423-1.286,2.124c-4.063,6.588-8.167,13.194-12.309,19.819l11.406-0.452c0.902-1.58,2.146-3.613,3.727-6.099
		c1.582-2.483,3.39-5.154,5.423-8.019c2.032-2.86,4.194-5.721,6.492-8.583c2.296-2.862,4.575-5.458,6.834-7.792
		c2.258-2.335,4.421-4.235,6.493-5.706c2.069-1.467,3.896-2.202,5.478-2.202c1.131,0,1.958,0.378,2.485,1.13
		c0.525,0.754,0.79,1.581,0.79,2.483c0,1.357-0.584,3.202-1.749,5.537c-1.17,2.335-2.712,5.026-4.631,8.074
		c-1.921,3.049-4.104,6.4-6.552,10.051c-2.446,3.655-4.952,7.512-7.511,11.577l11.973-0.452c0.902-1.58,2.127-3.613,3.671-6.099
		c1.542-2.483,3.312-5.154,5.307-8.019c1.994-2.86,4.103-5.721,6.325-8.583c2.221-2.862,4.462-5.458,6.721-7.792
		c2.259-2.335,4.421-4.235,6.494-5.706c2.07-1.467,3.896-2.202,5.477-2.202c0.829,0,1.542,0.283,2.146,0.849
		c0.602,0.562,0.902,1.375,0.902,2.427c0,1.432-0.828,3.294-2.483,5.592c-1.657,2.297-3.501,4.761-5.534,7.397
		c-2.033,2.636-3.879,5.347-5.535,8.132c-1.656,2.786-2.483,5.382-2.483,7.792c0,2.259,0.733,4.123,2.202,5.59
		c1.469,1.469,3.519,2.202,6.154,2.202c1.356,0,2.691-0.208,4.009-0.621c1.318-0.414,2.712-1.071,4.181-1.975
		c1.467-0.904,3.066-2.092,4.8-3.559c1.731-1.469,3.65-3.257,5.759-5.364c1.583-1.58,3.144-3.236,4.688-4.97
		c0.307-0.345,0.593-0.676,0.893-1.016c-0.363,1.462-0.555,2.931-0.555,4.406c0,4.064,1.241,7.378,3.727,9.938
		c2.485,2.559,5.873,3.84,10.165,3.84c4.215,0,8.713-0.887,13.496-2.654c4.779-1.767,9.769-4.987,14.965-9.656
		c3.688-3.388,6.869-6.625,9.542-9.713c2.673-3.086,5.177-6.211,7.512-9.375L577.773,292.148z M533.671,297.74
		c1.467-2.522,3.162-4.93,5.081-7.228c1.921-2.296,3.971-4.235,6.156-5.816c2.182-1.581,4.215-2.372,6.1-2.372
		c0.902,0,1.638,0.224,2.201,0.677c0.564,0.452,0.848,1.206,0.848,2.259c0,1.807-0.642,3.708-1.921,5.704
		c-1.281,1.996-2.992,3.878-5.138,5.647c-2.146,1.769-4.613,3.349-7.398,4.743c-2.787,1.394-5.723,2.392-8.809,2.993
		C531.243,302.466,532.202,300.262,533.671,297.74z M277.021,297.74c1.467-2.522,3.162-4.93,5.081-7.228
		c1.921-2.296,3.97-4.235,6.156-5.816c2.182-1.581,4.215-2.372,6.099-2.372c0.902,0,1.638,0.224,2.202,0.677
		c0.564,0.452,0.847,1.206,0.847,2.259c0,1.807-0.641,3.708-1.921,5.704c-1.281,1.996-2.993,3.878-5.138,5.647
		c-2.147,1.769-4.614,3.349-7.399,4.743c-2.787,1.394-5.722,2.392-8.809,2.993C274.593,302.466,275.553,300.262,277.021,297.74z
		 M196.925,294.181c-0.603,2.334-1.451,4.783-2.541,7.342c-1.092,2.561-2.371,5.122-3.84,7.681c-1.469,2.561-3.068,4.856-4.8,6.889
		c-1.733,2.033-3.541,3.691-5.423,4.971s-3.765,1.919-5.647,1.919c-1.731,0-2.993-0.525-3.783-1.58
		c-0.791-1.056-1.186-2.522-1.186-4.404c0-1.581,0.3-3.541,0.903-5.875c0.603-2.331,1.45-4.78,2.542-7.34
		c1.09-2.559,2.374-5.12,3.84-7.68c1.469-2.559,3.066-4.856,4.801-6.89c1.73-2.031,3.537-3.688,5.419-4.969
		c1.882-1.279,3.765-1.919,5.647-1.919c1.732,0,2.993,0.526,3.783,1.581s1.188,2.522,1.188,4.404
		C197.83,289.89,197.528,291.85,196.925,294.181z"/>
	<path fill="#489ED7" d="M71.387,328.197c2.461-1.218,4.565-2.848,6.319-4.907c1.752-2.058,3.186-4.398,4.298-7.026
		c1.112-2.631,1.987-5.395,2.627-8.292c0.641-2.901,1.097-5.819,1.367-8.748c0.269-2.932,0.471-5.676,0.607-8.243
		c0.201-4.649,0.84-9.065,1.921-13.246c1.077-4.177,2.679-7.837,4.801-10.971c2.126-3.137,4.788-5.613,7.991-7.436
		c1.852-1.052,3.92-1.789,6.19-2.233c-11.044-2.282-24.438-1.027-37.622,4.318c-26.566,10.773-42.2,34.058-34.921,52.007
		c1.712,4.22,4.548,7.761,8.216,10.579c-0.983-1.079-1.855-2.269-2.589-3.592c-1.347-2.427-2.023-5.256-2.023-8.493
		c0-1.28,0.169-2.526,0.507-3.74c0.337-1.215,0.859-2.31,1.567-3.287c0.709-0.978,1.584-1.755,2.629-2.328
		c1.045-0.57,2.276-0.858,3.691-0.858c1.349,0,2.577,0.387,3.69,1.162c1.112,0.779,1.67,1.906,1.67,3.389
		c0,1.819-0.657,3.22-1.974,4.194c-1.314,0.979-2.815,1.501-4.5,1.569c-0.338,0.946-0.556,1.89-0.655,2.835
		c-0.102,0.945-0.151,1.888-0.151,2.83c0,2.288,0.555,4.231,1.668,5.812c1.112,1.587,2.527,2.851,4.247,3.791
		c1.718,0.945,3.621,1.639,5.712,2.072c2.09,0.439,4.078,0.658,5.967,0.658C66.011,330.014,68.924,329.406,71.387,328.197z"/>
</g>
</svg>
